<svg data-v-423bf9ae="" xmlns="http://www.w3.org/2000/svg" viewBox="0 0 433 90" class="iconLeft"><!----><!----><!----><g data-v-423bf9ae="" id="e431ca5c-a53b-4c0e-a3c8-4aeba2f3bb75" fill="#000000" transform="matrix(4.29799455121286,0,0,4.29799455121286,93.65145014519254,-1.5472771817693314)"><path d="M2.65 13.02L2.65 13.02L2.65 13.02Q3.72 10.77 5.45 7.42L5.45 7.42L5.45 7.42Q6.13 6.08 6.78 5.54L6.78 5.54L6.78 5.54Q6.99 5.36 8.81 4.34L8.81 4.34L8.81 4.34Q9.07 4.19 9.34 4.02L9.34 4.02L9.34 4.02Q9.66 3.85 9.93 3.85L9.93 3.85L9.93 4.06L9.93 4.06Q9.30 4.54 9.09 5.18L9.09 5.18L9.09 5.18Q8.93 5.66 8.93 6.61L8.93 6.61L8.93 6.61Q8.93 9.37 10.35 12.46L10.35 12.46L10.35 12.46Q10.42 12.61 11.00 13.41L11.00 13.41L11.00 13.41Q11.48 14.06 11.48 14.34L11.48 14.34L11.48 14.34Q11.48 14.98 10.81 15.30L10.81 15.30L10.81 15.30Q10.29 15.55 9.56 15.55L9.56 15.55L9.56 15.55Q8.68 15.55 8.06 14.15L8.06 14.15L8.06 14.15Q7.92 13.82 7.41 12.04L7.41 12.04L7.41 12.04Q7.25 12.12 5.96 12.56L5.96 12.56L5.96 12.56Q4.76 12.96 4.75 13.02L4.75 13.02L4.05 15.12L4.05 15.12Q3.96 15.26 3.77 15.40L3.77 15.40L0.55 17.64L0.55 17.64Q0.31 17.81 0.10 17.81L0.10 17.81L0.10 17.81Q0.10 17.50 0.52 17.00L0.52 17.00L0.52 17.00Q1.04 16.37 1.11 16.24L1.11 16.24L1.11 16.24Q1.86 14.80 2.51 13.44L2.51 13.44L2.51 13.44Q2.60 13.23 2.65 13.02ZM6.43 8.54L6.43 8.54L6.43 8.54Q6.33 8.58 5.88 9.72L5.88 9.72L5.88 9.72Q5.43 10.85 5.43 11.06L5.43 11.06L6.99 11.06L6.99 11.06Q7.01 11.06 7.07 10.94L7.07 10.94L7.07 10.94Q7.13 10.82 7.13 10.78L7.13 10.78L7.13 10.78Q7.13 10.58 6.82 9.58L6.82 9.58L6.82 9.58Q6.51 8.58 6.43 8.54ZM12.17 15.23L12.17 15.23L12.17 15.16L12.31 14.74L12.31 14.74Q12.33 14.64 12.45 14.18L12.45 14.18L12.45 10.12L12.45 10.12Q12.35 9.84 12.31 9.56L12.31 9.56L12.31 9.28L12.31 9.28Q13.08 8.82 13.99 8.30L13.99 8.30L13.99 8.30Q14.83 7.83 15.11 7.83L15.11 7.83L15.11 8.57L15.25 8.57L15.25 8.57Q15.37 8.58 15.39 8.58L15.39 8.58L16.65 8.44L16.65 8.44Q17.44 8.61 17.77 8.72L17.77 8.72L17.77 9.00L17.77 9.00Q16.34 9.13 15.11 10.68L15.11 10.68L14.97 11.10L14.97 11.10Q14.83 11.31 14.76 11.38L14.76 11.38L14.76 14.04L12.59 15.44L12.45 15.46L12.45 15.46Q12.17 15.46 12.17 15.23ZM18.09 9.46L18.09 9.46L18.09 9.14L18.09 9.14Q19.45 8.54 20.19 7.88L20.19 7.88L21.59 6.62L21.87 6.62L21.87 8.44L22.01 8.58L22.01 8.58Q22.41 8.60 22.51 8.60L22.51 8.60L22.51 8.60Q23.04 8.60 24.09 8.50L24.09 8.50L24.09 8.50Q25.14 8.41 25.68 8.41L25.68 8.41L25.68 8.41Q25.68 8.83 24.77 9.60L24.77 9.60L24.77 9.60Q23.97 10.28 23.55 10.40L23.55 10.40L23.55 10.40Q23.34 10.46 22.71 10.51L22.71 10.51L22.71 10.51Q22.08 10.57 21.87 10.54L21.87 10.54L21.73 10.68L21.73 10.68Q21.70 10.77 21.70 11.52L21.70 11.52L21.70 11.52Q21.70 11.65 21.68 11.91L21.68 11.91L21.68 11.91Q21.66 12.18 21.66 12.31L21.66 12.31L21.66 12.31Q21.66 13.40 22.15 13.40L22.15 13.40L22.15 13.40Q22.37 13.40 22.43 13.34L22.43 13.34L23.83 11.94L24.22 11.94L24.22 11.94Q24.22 13.13 23.39 14.25L23.39 14.25L23.39 14.25Q22.48 15.48 21.38 15.48L21.38 15.48L21.38 15.48Q20.82 15.48 20.56 15.38L20.56 15.38L20.56 15.38Q20.30 15.27 19.91 14.88L19.91 14.88L19.91 14.88Q19.80 14.77 19.54 14.38L19.54 14.38L19.54 14.38Q19.28 13.99 19.28 13.90L19.28 13.90L19.28 9.84L19.28 9.84Q19.28 9.79 19.14 9.68L19.14 9.68L19.14 9.68Q19.00 9.58 18.93 9.56L18.93 9.56L18.93 9.56Q18.48 9.46 18.09 9.46ZM26.19 10.95L26.19 10.95L26.19 10.95Q26.19 8.76 27.79 6.94L27.79 6.94L27.79 6.94Q29.46 5.07 31.61 5.07L31.61 5.07L31.61 5.07Q32.47 5.07 32.84 5.45L32.84 5.45L32.84 5.45Q33.22 5.84 33.22 6.69L33.22 6.69L33.22 6.69Q33.22 7.73 32.51 8.75L32.51 8.75L32.51 8.75Q32.02 9.46 30.97 10.40L30.97 10.40L30.97 10.40Q30.86 10.50 30.67 10.53L30.67 10.53L30.49 10.57L30.49 10.57Q30.49 10.28 30.81 9.60L30.81 9.60L30.81 9.60Q31.12 8.93 31.12 8.58L31.12 8.58L31.12 8.58Q31.12 7.92 30.86 7.46L30.86 7.46L30.86 7.46Q30.53 6.90 29.92 6.90L29.92 6.90L29.92 6.90Q29.13 6.90 28.73 8.23L28.73 8.23L28.73 8.23Q28.43 9.18 28.43 10.14L28.43 10.14L28.43 10.14Q28.43 11.16 28.81 12.00L28.81 12.00L28.81 12.00Q29.30 13.08 30.21 13.08L30.21 13.08L30.21 13.08Q30.93 13.08 31.82 12.26L31.82 12.26L31.82 12.26Q32.10 12.01 33.07 10.96L33.07 10.96L33.35 10.96L33.35 11.24L33.35 11.24Q33.35 11.34 31.95 13.90L31.95 13.90L31.95 13.90Q31.09 15.46 29.60 15.46L29.60 15.46L29.60 15.46Q27.87 15.46 26.96 14L26.96 14L26.96 14Q26.19 12.78 26.19 10.95ZM34.17 12.45L34.17 12.45L34.17 12.45Q34.17 10.70 35.25 9.34L35.25 9.34L35.25 9.34Q36.40 7.87 38.11 7.87L38.11 7.87L38.11 7.87Q39.49 7.87 40.18 8.85L40.18 8.85L40.18 8.85Q40.78 9.70 40.78 11.13L40.78 11.13L40.78 11.13Q40.78 12.68 39.84 14L39.84 14L39.84 14Q38.81 15.46 37.27 15.46L37.27 15.46L37.27 15.46Q36.12 15.46 35.15 14.52L35.15 14.52L35.15 14.52Q34.17 13.58 34.17 12.45ZM36.12 11.28L36.12 11.28L36.12 11.28Q36.12 12.46 37.69 13.76L37.69 13.76L37.87 13.76L37.87 13.76Q38.01 13.78 38.04 13.78L38.04 13.78L38.04 13.78Q38.53 13.78 38.77 13.26L38.77 13.26L38.77 13.26Q38.95 12.87 38.95 12.31L38.95 12.31L38.95 12.31Q38.95 11.34 38.64 10.58L38.64 10.58L38.64 10.58Q38.21 9.53 37.39 9.53L37.39 9.53L37.39 9.53Q37.04 9.53 36.86 10.04L36.86 10.04L36.86 10.04Q36.81 10.30 36.67 10.84L36.67 10.84L36.67 10.84Q36.54 11.28 36.12 11.28ZM42.64 13.05L42.66 12.77L42.66 12.77Q42.66 12.74 42.64 12.49L42.64 12.49L42.64 12.49Q42.46 11.51 42.22 10.53L42.22 10.53L42.22 10.53Q42.20 10.44 41.92 10.35L41.92 10.35L41.92 10.35Q41.64 10.26 41.64 10.11L41.64 10.11L41.64 10.11Q41.64 9.83 42.91 9.20L42.91 9.20L42.91 9.20Q44.14 8.57 44.53 8.57L44.53 8.57L44.60 8.57L44.60 8.57Q44.80 8.64 44.88 8.71L44.88 8.71L44.88 9.97L45.02 9.97L45.02 9.97Q45.56 9.52 46.31 9.10L46.31 9.10L46.31 9.10Q47.26 8.57 47.75 8.57L47.75 8.57L47.82 8.57L47.82 8.57Q47.98 8.64 47.98 8.78L47.98 8.78L47.98 8.78Q47.98 9.04 47.69 9.63L47.69 9.63L47.69 9.63Q47.40 10.22 47.40 10.53L47.40 10.53L47.40 10.53Q47.40 11.37 47.43 11.55L47.43 11.55L47.43 11.55Q47.56 12.36 48.03 12.36L48.03 12.36L48.03 12.36Q48.44 12.36 48.50 11.84L48.50 11.84L48.50 11.84Q48.50 11.84 48.58 10.98L48.58 10.98L48.58 10.98Q48.71 10.37 49.01 10.37L49.01 10.37L49.06 10.37L49.06 10.37Q49.07 10.39 49.08 10.39L49.08 10.39L49.08 10.39Q49.24 10.96 49.24 11.87L49.24 11.87L49.24 11.87Q49.24 12.98 48.58 14.07L48.58 14.07L48.58 14.07Q47.82 15.32 46.82 15.32L46.82 15.32L46.82 15.32Q45.82 15.32 45.43 13.83L45.43 13.83L45.43 13.83Q45.29 13.30 45.16 11.65L45.16 11.65L45.16 11.65Q44.91 11.75 44.81 12.98L44.81 12.98L44.81 12.98Q44.80 13.19 44.74 14.45L44.74 14.45L44.74 14.45Q44.62 15.01 43.46 15.75L43.46 15.75L43.46 15.75Q42.35 16.46 41.73 16.46L41.73 16.46L41.73 16.46Q41.73 16.20 41.97 15.82L41.97 15.82L41.97 15.82Q42.20 15.44 42.22 15.29L42.22 15.29L42.50 13.47L42.64 13.05ZM51.03 13.05L51.04 12.77L51.04 12.77Q51.04 12.74 51.03 12.49L51.03 12.49L51.03 12.49Q50.85 11.51 50.61 10.53L50.61 10.53L50.61 10.53Q50.58 10.44 50.30 10.35L50.30 10.35L50.30 10.35Q50.02 10.26 50.02 10.11L50.02 10.11L50.02 10.11Q50.02 9.83 51.30 9.20L51.30 9.20L51.30 9.20Q52.53 8.57 52.92 8.57L52.92 8.57L52.99 8.57L52.99 8.57Q53.19 8.64 53.27 8.71L53.27 8.71L53.27 9.97L53.41 9.97L53.41 9.97Q53.94 9.52 54.70 9.10L54.70 9.10L54.70 9.10Q55.65 8.57 56.14 8.57L56.14 8.57L56.21 8.57L56.21 8.57Q56.36 8.64 56.36 8.78L56.36 8.78L56.36 8.78Q56.36 9.04 56.08 9.63L56.08 9.63L56.08 9.63Q55.79 10.22 55.79 10.53L55.79 10.53L55.79 10.53Q55.79 11.37 55.82 11.55L55.82 11.55L55.82 11.55Q55.94 12.36 56.42 12.36L56.42 12.36L56.42 12.36Q56.83 12.36 56.88 11.84L56.88 11.84L56.88 11.84Q56.88 11.84 56.97 10.98L56.97 10.98L56.97 10.98Q57.09 10.37 57.40 10.37L57.40 10.37L57.44 10.37L57.44 10.37Q57.46 10.39 57.47 10.39L57.47 10.39L57.47 10.39Q57.62 10.96 57.62 11.87L57.62 11.87L57.62 11.87Q57.62 12.98 56.97 14.07L56.97 14.07L56.97 14.07Q56.21 15.32 55.20 15.32L55.20 15.32L55.20 15.32Q54.21 15.32 53.82 13.83L53.82 13.83L53.82 13.83Q53.68 13.30 53.55 11.65L53.55 11.65L53.55 11.65Q53.30 11.75 53.20 12.98L53.20 12.98L53.20 12.98Q53.19 13.19 53.13 14.45L53.13 14.45L53.13 14.45Q53.00 15.01 51.84 15.75L51.84 15.75L51.84 15.75Q50.74 16.46 50.12 16.46L50.12 16.46L50.12 16.46Q50.12 16.20 50.35 15.82L50.35 15.82L50.35 15.82Q50.58 15.44 50.61 15.29L50.61 15.29L50.89 13.47L51.03 13.05ZM58.32 12.82L58.32 12.82L58.32 12.82Q58.32 11.07 59.66 9.75L59.66 9.75L59.66 9.75Q61.00 8.43 62.75 8.43L62.75 8.43L62.75 8.43Q63.41 8.43 63.68 8.68L63.68 8.68L63.68 8.68Q63.95 8.93 63.95 9.58L63.95 9.58L63.95 9.58Q63.95 10.50 62.90 11.28L62.90 11.28L62.90 11.28Q62.02 11.82 61.14 12.36L61.14 12.36L61.00 12.50L61.00 12.50Q61.00 12.53 60.98 12.57L60.98 12.57L60.98 12.57Q60.98 12.80 61.31 13.05L61.31 13.05L61.31 13.05Q61.57 13.26 61.84 13.34L61.84 13.34L61.91 13.34L61.91 13.34Q62.33 13.34 63.20 12.69L63.20 12.69L63.20 12.69Q64.06 12.04 64.25 12.04L64.25 12.04L64.25 12.04Q64.25 13.23 63.01 14.34L63.01 14.34L63.01 14.34Q61.78 15.46 60.58 15.46L60.58 15.46L60.58 15.46Q59.53 15.46 58.90 14.64L58.90 14.64L58.90 14.64Q58.32 13.90 58.32 12.82ZM60.86 10.12L60.86 10.12L60.86 10.12Q60.35 10.81 60.35 11.56L60.35 11.56L60.35 11.56Q60.63 11.56 61.03 11.14L61.03 11.14L61.03 11.14Q61.43 10.71 61.43 10.42L61.43 10.42L61.43 10.42Q61.43 10.11 61.07 10.11L61.07 10.11L60.97 10.11L60.97 10.11Q60.87 10.12 60.86 10.12ZM65.02 12.84L65.02 12.84L65.02 12.84Q65.02 11.16 66.26 9.58L66.26 9.58L66.26 9.58Q67.59 7.90 69.24 7.90L69.24 7.90L69.24 7.90Q69.82 7.90 70.22 8.22L70.22 8.22L70.22 8.22Q70.63 8.54 70.63 9.10L70.63 9.10L70.63 9.17L70.63 9.17Q70.35 10.02 69.51 11.13L69.51 11.13L69.51 11.13Q68.77 12.11 68.67 12.11L68.67 12.11L68.36 12.11L68.36 12.11Q68.36 11.87 68.52 11.41L68.52 11.41L68.52 11.41Q68.67 10.95 68.67 10.71L68.67 10.71L68.67 10.71Q68.67 10.30 68.41 10.01L68.41 10.01L68.41 10.01Q68.15 9.72 67.76 9.72L67.76 9.72L67.76 9.72Q67.17 9.72 66.96 10.26L66.96 10.26L66.96 10.26Q66.84 10.60 66.84 11.31L66.84 11.31L66.84 11.31Q66.84 12.17 67.28 12.66L67.28 12.66L67.28 12.66Q67.65 13.05 68.53 13.37L68.53 13.37L68.74 13.38L68.74 13.38Q68.77 13.38 68.95 13.37L68.95 13.37L69.93 12.95L69.93 12.95Q69.99 12.94 70.01 12.94L70.01 12.94L70.01 12.94Q70.22 12.94 70.22 13.37L70.22 13.37L70.22 13.37Q70.22 14.06 69.12 14.87L69.12 14.87L69.12 14.87Q68.07 15.62 67.34 15.62L67.34 15.62L67.34 15.62Q66.58 15.62 66.43 15.47L66.43 15.47L65.31 14.35L65.31 14.35Q65.02 14.06 65.02 12.84ZM71.30 9.46L71.30 9.46L71.30 9.14L71.30 9.14Q72.66 8.54 73.40 7.88L73.40 7.88L74.80 6.62L75.08 6.62L75.08 8.44L75.22 8.58L75.22 8.58Q75.63 8.60 75.73 8.60L75.73 8.60L75.73 8.60Q76.26 8.60 77.31 8.50L77.31 8.50L77.31 8.50Q78.36 8.41 78.89 8.41L78.89 8.41L78.89 8.41Q78.89 8.83 77.98 9.60L77.98 9.60L77.98 9.60Q77.18 10.28 76.76 10.40L76.76 10.40L76.76 10.40Q76.55 10.46 75.92 10.51L75.92 10.51L75.92 10.51Q75.29 10.57 75.08 10.54L75.08 10.54L74.94 10.68L74.94 10.68Q74.91 10.77 74.91 11.52L74.91 11.52L74.91 11.52Q74.91 11.65 74.89 11.91L74.89 11.91L74.89 11.91Q74.87 12.18 74.87 12.31L74.87 12.31L74.87 12.31Q74.87 13.40 75.36 13.40L75.36 13.40L75.36 13.40Q75.59 13.40 75.64 13.34L75.64 13.34L77.04 11.94L77.43 11.94L77.43 11.94Q77.43 13.13 76.61 14.25L76.61 14.25L76.61 14.25Q75.70 15.48 74.59 15.48L74.59 15.48L74.59 15.48Q74.03 15.48 73.77 15.38L73.77 15.38L73.77 15.38Q73.51 15.27 73.12 14.88L73.12 14.88L73.12 14.88Q73.01 14.77 72.75 14.38L72.75 14.38L72.75 14.38Q72.49 13.99 72.49 13.90L72.49 13.90L72.49 9.84L72.49 9.84Q72.49 9.79 72.35 9.68L72.35 9.68L72.35 9.68Q72.21 9.58 72.14 9.56L72.14 9.56L72.14 9.56Q71.69 9.46 71.30 9.46Z"></path></g><defs data-v-423bf9ae=""><linearGradient data-v-423bf9ae="" gradientTransform="rotate(25)" id="02aa0daf-ea60-4c4d-af21-85676bb279c1" x1="0%" y1="0%" x2="100%" y2="0%"><stop data-v-423bf9ae="" offset="0%" style="stop-color: rgb(60, 17, 67); stop-opacity: 1;"></stop><stop data-v-423bf9ae="" offset="100%" style="stop-color: rgb(194, 81, 120); stop-opacity: 1;"></stop></linearGradient></defs><g data-v-423bf9ae="" id="cdb050e3-b2ed-44e5-a150-6321b2d1da6c" transform="matrix(2.8125,0,0,2.8125,-7.170000076293945,0)" stroke="none" fill="url(#02aa0daf-ea60-4c4d-af21-85676bb279c1)"><path d="M2.83 18.247l26.34-9.124L2.83 0zM29.17 32V13.753L2.83 22.877z"></path></g><!----></svg>